<mxfile host="app.diagrams.net" modified="2021-01-14T13:58:19.065Z" agent="5.0 (Windows NT 10.0; Win64; x64) AppleWebKit/537.36 (KHTML, like Gecko) Chrome/87.0.4280.141 Safari/537.36" etag="A7x376rmf5XKEg_r4Uur" version="14.1.8" type="github">
  <diagram id="tf0YAByuXyDVgMHpkEqR" name="Page-1">
    <mxGraphModel dx="876" dy="564" grid="1" gridSize="10" guides="1" tooltips="1" connect="1" arrows="1" fold="1" page="1" pageScale="1" pageWidth="850" pageHeight="1100" math="0" shadow="0">
      <root>
        <mxCell id="0" />
        <mxCell id="1" parent="0" />
        <mxCell id="hzk9ga_4gCy0Dq099i-7-1" value="Lägenhet" style="rounded=1;arcSize=10;whiteSpace=wrap;html=1;align=center;" vertex="1" parent="1">
          <mxGeometry x="295" y="310" width="100" height="40" as="geometry" />
        </mxCell>
        <mxCell id="hzk9ga_4gCy0Dq099i-7-18" style="edgeStyle=orthogonalEdgeStyle;rounded=0;orthogonalLoop=1;jettySize=auto;html=1;exitX=0.5;exitY=0;exitDx=0;exitDy=0;" edge="1" parent="1" source="hzk9ga_4gCy0Dq099i-7-2">
          <mxGeometry relative="1" as="geometry">
            <mxPoint x="50" y="120" as="targetPoint" />
          </mxGeometry>
        </mxCell>
        <mxCell id="hzk9ga_4gCy0Dq099i-7-2" value="Rum" style="rounded=1;arcSize=10;whiteSpace=wrap;html=1;align=center;" vertex="1" parent="1">
          <mxGeometry x="20" y="110" width="100" height="40" as="geometry" />
        </mxCell>
        <mxCell id="hzk9ga_4gCy0Dq099i-7-3" value="Kök" style="ellipse;whiteSpace=wrap;html=1;align=center;" vertex="1" parent="1">
          <mxGeometry x="140" y="390" width="100" height="40" as="geometry" />
        </mxCell>
        <mxCell id="hzk9ga_4gCy0Dq099i-7-4" value="Kokvrå" style="ellipse;whiteSpace=wrap;html=1;align=center;" vertex="1" parent="1">
          <mxGeometry x="90" y="350" width="100" height="40" as="geometry" />
        </mxCell>
        <mxCell id="hzk9ga_4gCy0Dq099i-7-5" value="Antal förråd" style="ellipse;whiteSpace=wrap;html=1;align=center;" vertex="1" parent="1">
          <mxGeometry x="160" y="310" width="100" height="40" as="geometry" />
        </mxCell>
        <mxCell id="hzk9ga_4gCy0Dq099i-7-7" value="PersonNr" style="ellipse;whiteSpace=wrap;html=1;align=center;" vertex="1" parent="1">
          <mxGeometry x="660" y="330" width="100" height="40" as="geometry" />
        </mxCell>
        <mxCell id="hzk9ga_4gCy0Dq099i-7-8" value="PersonNr" style="ellipse;whiteSpace=wrap;html=1;align=center;" vertex="1" parent="1">
          <mxGeometry x="250" y="30" width="100" height="40" as="geometry" />
        </mxCell>
        <mxCell id="hzk9ga_4gCy0Dq099i-7-9" value="Parkeringsplats" style="whiteSpace=wrap;html=1;align=center;" vertex="1" parent="1">
          <mxGeometry x="640" y="140" width="100" height="40" as="geometry" />
        </mxCell>
        <mxCell id="hzk9ga_4gCy0Dq099i-7-10" value="Utomhus" style="ellipse;whiteSpace=wrap;html=1;align=center;" vertex="1" parent="1">
          <mxGeometry x="590" y="60" width="100" height="40" as="geometry" />
        </mxCell>
        <mxCell id="hzk9ga_4gCy0Dq099i-7-11" value="Garage" style="ellipse;whiteSpace=wrap;html=1;align=center;" vertex="1" parent="1">
          <mxGeometry x="720" y="60" width="100" height="40" as="geometry" />
        </mxCell>
        <mxCell id="hzk9ga_4gCy0Dq099i-7-12" value="StorlekKvm" style="ellipse;whiteSpace=wrap;html=1;align=center;" vertex="1" parent="1">
          <mxGeometry x="480" y="520" width="100" height="40" as="geometry" />
        </mxCell>
        <mxCell id="hzk9ga_4gCy0Dq099i-7-13" value="Telefonnummer" style="ellipse;whiteSpace=wrap;html=1;align=center;fontStyle=4;" vertex="1" parent="1">
          <mxGeometry x="150" y="450" width="100" height="40" as="geometry" />
        </mxCell>
        <mxCell id="hzk9ga_4gCy0Dq099i-7-15" value="Bor i" style="shape=rhombus;perimeter=rhombusPerimeter;whiteSpace=wrap;html=1;align=center;" vertex="1" parent="1">
          <mxGeometry x="240" y="190" width="120" height="60" as="geometry" />
        </mxCell>
        <mxCell id="hzk9ga_4gCy0Dq099i-7-16" value="Personer" style="rounded=1;arcSize=10;whiteSpace=wrap;html=1;align=center;" vertex="1" parent="1">
          <mxGeometry x="250" y="110" width="100" height="40" as="geometry" />
        </mxCell>
        <mxCell id="hzk9ga_4gCy0Dq099i-7-17" value="Kontrakterad" style="shape=rhombus;perimeter=rhombusPerimeter;whiteSpace=wrap;html=1;align=center;" vertex="1" parent="1">
          <mxGeometry x="480" y="320" width="120" height="60" as="geometry" />
        </mxCell>
        <mxCell id="hzk9ga_4gCy0Dq099i-7-19" value="" style="endArrow=none;html=1;rounded=0;entryX=0.5;entryY=1;entryDx=0;entryDy=0;exitX=0.5;exitY=0;exitDx=0;exitDy=0;" edge="1" parent="1" source="hzk9ga_4gCy0Dq099i-7-13" target="hzk9ga_4gCy0Dq099i-7-1">
          <mxGeometry relative="1" as="geometry">
            <mxPoint x="210" y="380" as="sourcePoint" />
            <mxPoint x="370" y="380" as="targetPoint" />
          </mxGeometry>
        </mxCell>
        <mxCell id="hzk9ga_4gCy0Dq099i-7-20" value="Telefonnummer" style="ellipse;whiteSpace=wrap;html=1;align=center;fontStyle=4;" vertex="1" parent="1">
          <mxGeometry x="630" y="380" width="100" height="40" as="geometry" />
        </mxCell>
        <mxCell id="hzk9ga_4gCy0Dq099i-7-21" value="Kostar" style="shape=rhombus;perimeter=rhombusPerimeter;whiteSpace=wrap;html=1;align=center;" vertex="1" parent="1">
          <mxGeometry x="365" y="395" width="120" height="50" as="geometry" />
        </mxCell>
        <mxCell id="hzk9ga_4gCy0Dq099i-7-22" value="Hyra" style="rounded=1;arcSize=10;whiteSpace=wrap;html=1;align=center;" vertex="1" parent="1">
          <mxGeometry x="470" y="460" width="100" height="40" as="geometry" />
        </mxCell>
        <mxCell id="hzk9ga_4gCy0Dq099i-7-23" value="Telefonnummer" style="ellipse;whiteSpace=wrap;html=1;align=center;fontStyle=4;" vertex="1" parent="1">
          <mxGeometry x="610" y="510" width="100" height="40" as="geometry" />
        </mxCell>
        <mxCell id="hzk9ga_4gCy0Dq099i-7-24" value="Månadshyra" style="ellipse;whiteSpace=wrap;html=1;align=center;dashed=1;" vertex="1" parent="1">
          <mxGeometry x="340" y="510" width="100" height="40" as="geometry" />
        </mxCell>
        <mxCell id="hzk9ga_4gCy0Dq099i-7-25" value="Utnyttjar" style="shape=rhombus;perimeter=rhombusPerimeter;whiteSpace=wrap;html=1;align=center;" vertex="1" parent="1">
          <mxGeometry x="450" y="220" width="110" height="60" as="geometry" />
        </mxCell>
        <mxCell id="hzk9ga_4gCy0Dq099i-7-26" value="" style="endArrow=none;html=1;rounded=0;entryX=0;entryY=1;entryDx=0;entryDy=0;" edge="1" parent="1" target="hzk9ga_4gCy0Dq099i-7-1">
          <mxGeometry relative="1" as="geometry">
            <mxPoint x="190" y="370" as="sourcePoint" />
            <mxPoint x="350" y="370" as="targetPoint" />
          </mxGeometry>
        </mxCell>
        <mxCell id="hzk9ga_4gCy0Dq099i-7-27" value="" style="endArrow=none;html=1;rounded=0;exitX=1;exitY=0;exitDx=0;exitDy=0;" edge="1" parent="1" source="hzk9ga_4gCy0Dq099i-7-5">
          <mxGeometry relative="1" as="geometry">
            <mxPoint x="240" y="290" as="sourcePoint" />
            <mxPoint x="290" y="316" as="targetPoint" />
          </mxGeometry>
        </mxCell>
        <mxCell id="hzk9ga_4gCy0Dq099i-7-28" value="" style="endArrow=none;html=1;rounded=0;entryX=0.122;entryY=1.055;entryDx=0;entryDy=0;entryPerimeter=0;" edge="1" parent="1" target="hzk9ga_4gCy0Dq099i-7-1">
          <mxGeometry relative="1" as="geometry">
            <mxPoint x="230" y="400" as="sourcePoint" />
            <mxPoint x="390" y="400" as="targetPoint" />
          </mxGeometry>
        </mxCell>
      </root>
    </mxGraphModel>
  </diagram>
</mxfile>
